<svg xmlns="http://www.w3.org/2000/svg" xmlns:xlink="http://www.w3.org/1999/xlink" width="1366" zoomAndPan="magnify" viewBox="0 0 1024.5 576" height="768" preserveAspectRatio="xMidYMid meet" version="1.0"><defs><clipPath id="a323c60b39"><path d="M 0 0.140625 L 1024 0.140625 L 1024 366.164062 L 0 366.164062 Z M 0 0.140625 " clip-rule="nonzero"/></clipPath><clipPath id="c0b99d19f9"><path d="M 512 -749.5625 C 203.902344 -749.5625 -45.863281 -499.796875 -45.863281 -191.699219 C -45.863281 116.402344 203.902344 366.164062 512 366.164062 C 820.097656 366.164062 1069.863281 116.402344 1069.863281 -191.699219 C 1069.863281 -499.796875 820.097656 -749.5625 512 -749.5625 Z M 512 -749.5625 " clip-rule="nonzero"/></clipPath><clipPath id="55c545d700"><path d="M 0 0.140625 L 1024 0.140625 L 1024 366.164062 L 0 366.164062 Z M 0 0.140625 " clip-rule="nonzero"/></clipPath><clipPath id="7e52f45ed5"><path d="M 512 -749.5625 C 203.902344 -749.5625 -45.863281 -499.796875 -45.863281 -191.699219 C -45.863281 116.402344 203.902344 366.164062 512 366.164062 C 820.097656 366.164062 1069.863281 116.402344 1069.863281 -191.699219 C 1069.863281 -499.796875 820.097656 -749.5625 512 -749.5625 Z M 512 -749.5625 " clip-rule="nonzero"/></clipPath><clipPath id="40c9522c7a"><rect x="0" width="1024" y="0" height="367"/></clipPath><clipPath id="da6caf1f12"><path d="M 0 0.140625 L 1024 0.140625 L 1024 365.894531 L 0 365.894531 Z M 0 0.140625 " clip-rule="nonzero"/></clipPath><clipPath id="1361a4f496"><path d="M 512 -749.5625 C 203.902344 -749.5625 -45.863281 -499.796875 -45.863281 -191.699219 C -45.863281 116.398438 203.902344 366.164062 512 366.164062 C 820.097656 366.164062 1069.863281 116.398438 1069.863281 -191.699219 C 1069.863281 -499.796875 820.097656 -749.5625 512 -749.5625 Z M 512 -749.5625 " clip-rule="nonzero"/></clipPath></defs><g clip-path="url(#a323c60b39)"><g clip-path="url(#c0b99d19f9)"><g transform="matrix(1, 0, 0, 1, 0, -0.000000000000058398)"><g clip-path="url(#40c9522c7a)"><g clip-path="url(#55c545d700)"><g clip-path="url(#7e52f45ed5)"><path fill="#faf8f5" d="M -45.863281 -749.5625 L 1069.863281 -749.5625 L 1069.863281 366.164062 L -45.863281 366.164062 Z M -45.863281 -749.5625 " fill-opacity="1" fill-rule="nonzero"/></g></g></g></g></g></g><g clip-path="url(#da6caf1f12)"><g clip-path="url(#1361a4f496)"><path fill="#f7f2ea" d="M 501.507812 -747.964844 L 492.515625 -747.726562 L 492.4375 -750.722656 L 501.425781 -750.960938 Z M 491.046875 -747.675781 L 482.085938 -747.269531 L 481.953125 -750.265625 L 490.914062 -750.671875 Z M 480.609375 -747.191406 L 471.609375 -746.617188 L 471.417969 -749.609375 L 480.421875 -750.183594 Z M 470.140625 -746.511719 L 461.1875 -745.773438 L 460.941406 -748.761719 L 469.894531 -749.5 Z M 459.726562 -745.636719 L 450.777344 -744.730469 L 450.476562 -747.714844 L 459.425781 -748.621094 Z M 449.3125 -744.570312 L 440.371094 -743.492188 L 440.011719 -746.46875 L 448.953125 -747.546875 Z M 438.910156 -743.304688 L 430.019531 -742.066406 L 429.605469 -745.035156 L 438.496094 -746.273438 Z M 428.570312 -741.847656 L 419.667969 -740.4375 L 419.199219 -743.398438 L 428.101562 -744.808594 Z M 418.214844 -740.191406 L 409.359375 -738.613281 L 408.832031 -741.566406 L 417.691406 -743.144531 Z M 407.914062 -738.34375 L 399.109375 -736.601562 L 398.527344 -739.542969 L 407.332031 -741.285156 Z M 397.664062 -736.300781 L 388.859375 -734.386719 L 388.21875 -737.316406 L 397.027344 -739.230469 Z M 387.421875 -734.0625 L 378.675781 -731.984375 L 377.984375 -734.902344 L 386.730469 -736.980469 Z M 377.253906 -731.632812 L 368.539062 -729.390625 L 367.792969 -732.292969 L 376.503906 -734.539062 Z M 367.117188 -729.011719 L 358.441406 -726.601562 L 357.640625 -729.488281 L 366.316406 -731.898438 Z M 357.03125 -726.195312 L 348.421875 -723.625 L 347.566406 -726.5 L 356.171875 -729.066406 Z M 347.019531 -723.195312 L 338.4375 -720.457031 L 337.523438 -723.3125 L 346.109375 -726.050781 Z M 337.039062 -719.996094 L 328.523438 -717.097656 L 327.558594 -719.9375 L 336.074219 -722.832031 Z M 327.136719 -716.613281 L 318.683594 -713.558594 L 317.664062 -716.378906 L 326.117188 -719.433594 Z M 317.300781 -713.042969 L 308.894531 -709.824219 L 307.820312 -712.625 L 316.230469 -715.84375 Z M 307.523438 -709.285156 L 299.191406 -705.914062 L 298.066406 -708.691406 L 306.398438 -712.066406 Z M 297.835938 -705.347656 L 289.558594 -701.8125 L 288.382812 -704.570312 L 296.660156 -708.105469 Z M 288.210938 -701.222656 L 280.003906 -697.53125 L 278.773438 -700.269531 L 286.980469 -703.957031 Z M 278.667969 -696.917969 L 270.542969 -693.078125 L 269.261719 -695.789062 L 277.386719 -699.628906 Z M 269.21875 -692.4375 L 261.152344 -688.4375 L 259.820312 -691.125 L 267.886719 -695.125 Z M 259.839844 -687.769531 L 251.859375 -683.625 L 250.476562 -686.285156 L 258.457031 -690.433594 Z M 250.5625 -682.933594 L 242.660156 -678.636719 L 241.226562 -681.273438 L 249.128906 -685.570312 Z M 241.371094 -677.921875 L 233.550781 -673.476562 L 232.066406 -676.082031 L 239.890625 -680.527344 Z M 232.277344 -672.734375 L 224.546875 -668.148438 L 223.015625 -670.726562 L 230.746094 -675.3125 Z M 223.28125 -667.378906 C 220.722656 -665.824219 218.179688 -664.246094 215.648438 -662.652344 L 214.046875 -665.1875 C 216.59375 -666.792969 219.152344 -668.375 221.722656 -669.941406 Z M 214.382812 -661.851562 C 211.859375 -660.25 209.34375 -658.628906 206.847656 -656.984375 L 205.199219 -659.492188 C 207.710938 -661.140625 210.238281 -662.773438 212.777344 -664.382812 Z M 205.597656 -656.164062 C 203.105469 -654.511719 200.625 -652.84375 198.15625 -651.15625 L 196.460938 -653.628906 C 198.941406 -655.328125 201.4375 -657.007812 203.945312 -658.664062 Z M 196.921875 -650.308594 C 194.457031 -648.613281 192.007812 -646.898438 189.570312 -645.160156 L 187.832031 -647.605469 C 190.28125 -649.347656 192.746094 -651.074219 195.222656 -652.777344 Z M 188.355469 -644.292969 C 185.925781 -642.550781 183.507812 -640.792969 181.105469 -639.011719 L 179.320312 -641.421875 C 181.734375 -643.210938 184.164062 -644.980469 186.609375 -646.730469 Z M 179.90625 -638.121094 C 177.507812 -636.332031 175.121094 -634.523438 172.753906 -632.699219 L 170.921875 -635.074219 C 173.304688 -636.910156 175.703125 -638.726562 178.113281 -640.523438 Z M 171.570312 -631.785156 C 169.203125 -629.953125 166.855469 -628.101562 164.519531 -626.234375 L 162.648438 -628.574219 C 164.992188 -630.453125 167.355469 -632.3125 169.734375 -634.15625 Z M 163.355469 -625.296875 C 161.023438 -623.421875 158.710938 -621.527344 156.414062 -619.617188 L 154.496094 -621.921875 C 156.804688 -623.84375 159.132812 -625.746094 161.472656 -627.632812 Z M 155.265625 -618.660156 C 152.96875 -616.738281 150.691406 -614.800781 148.425781 -612.847656 L 146.46875 -615.113281 C 148.742188 -617.082031 151.035156 -619.027344 153.339844 -620.957031 Z M 147.296875 -611.867188 C 145.039062 -609.90625 142.796875 -607.925781 140.574219 -605.929688 L 138.570312 -608.160156 C 140.808594 -610.167969 143.0625 -612.160156 145.332031 -614.128906 Z M 139.460938 -604.929688 C 137.242188 -602.925781 135.035156 -600.90625 132.847656 -598.867188 L 130.804688 -601.058594 C 133.003906 -603.109375 135.21875 -605.144531 137.453125 -607.15625 Z M 131.753906 -597.84375 C 129.570312 -595.800781 127.40625 -593.738281 125.253906 -591.660156 L 123.171875 -593.816406 C 125.332031 -595.90625 127.511719 -597.980469 129.703125 -600.035156 Z M 124.183594 -590.617188 C 122.039062 -588.535156 119.910156 -586.433594 117.800781 -584.3125 L 115.675781 -586.429688 C 117.796875 -588.558594 119.9375 -590.671875 122.089844 -592.769531 Z M 116.746094 -583.253906 C 114.640625 -581.128906 112.554688 -578.988281 110.484375 -576.828125 L 108.320312 -578.902344 C 110.402344 -581.074219 112.5 -583.226562 114.617188 -585.363281 Z M 109.449219 -575.746094 C 107.382812 -573.582031 105.335938 -571.402344 103.308594 -569.207031 L 101.105469 -571.242188 C 103.144531 -573.449219 105.203125 -575.640625 107.28125 -577.816406 Z M 102.292969 -568.109375 C 100.269531 -565.90625 98.261719 -563.6875 96.273438 -561.453125 L 94.035156 -563.449219 C 96.035156 -565.695312 98.050781 -567.921875 100.085938 -570.136719 Z M 95.28125 -560.335938 C 93.300781 -558.097656 91.335938 -555.84375 89.390625 -553.570312 L 87.113281 -555.523438 C 89.070312 -557.804688 91.042969 -560.074219 93.039062 -562.324219 Z M 88.417969 -552.433594 C 86.476562 -550.15625 84.554688 -547.867188 82.652344 -545.558594 L 80.339844 -547.464844 C 82.253906 -549.785156 84.183594 -552.089844 86.136719 -554.378906 Z M 81.699219 -544.402344 C 79.804688 -542.09375 77.925781 -539.765625 76.066406 -537.425781 L 73.71875 -539.289062 C 75.589844 -541.644531 77.476562 -543.984375 79.382812 -546.304688 Z M 75.136719 -536.253906 C 73.285156 -533.90625 71.449219 -531.542969 69.632812 -529.167969 L 67.25 -530.988281 C 69.078125 -533.375 70.921875 -535.75 72.785156 -538.109375 Z M 68.726562 -527.976562 C 66.917969 -525.59375 65.128906 -523.199219 63.355469 -520.789062 L 60.941406 -522.566406 C 62.71875 -524.988281 64.519531 -527.394531 66.339844 -529.789062 Z M 62.472656 -519.585938 C 60.707031 -517.167969 58.964844 -514.742188 57.238281 -512.296875 L 54.789062 -514.027344 C 56.523438 -516.484375 58.277344 -518.925781 60.050781 -521.351562 Z M 56.378906 -511.074219 C 54.65625 -508.625 52.957031 -506.164062 51.277344 -503.6875 L 48.796875 -505.371094 C 50.484375 -507.859375 52.195312 -510.335938 53.925781 -512.800781 Z M 50.441406 -502.449219 C 48.769531 -499.972656 47.117188 -497.480469 45.484375 -494.976562 L 42.972656 -496.613281 C 44.613281 -499.128906 46.273438 -501.636719 47.953125 -504.125 Z M 44.671875 -493.722656 C 43.046875 -491.210938 41.441406 -488.6875 39.855469 -486.152344 L 37.3125 -487.742188 C 38.90625 -490.292969 40.519531 -492.828125 42.15625 -495.351562 Z M 39.070312 -484.890625 L 34.382812 -477.210938 L 31.824219 -478.773438 L 36.511719 -486.453125 Z M 33.628906 -475.949219 L 29.09375 -468.1875 L 26.503906 -469.699219 L 31.042969 -477.464844 Z M 28.359375 -466.910156 L 23.964844 -459.054688 L 21.347656 -460.519531 L 25.746094 -468.375 Z M 23.257812 -457.761719 L 19.015625 -449.835938 L 16.375 -451.25 L 20.613281 -459.175781 Z M 18.335938 -448.53125 L 14.242188 -440.523438 L 11.570312 -441.886719 L 15.664062 -449.898438 Z M 13.585938 -439.203125 L 9.640625 -431.113281 L 6.945312 -432.425781 L 10.890625 -440.519531 Z M 9.007812 -429.785156 L 5.222656 -421.632812 L 2.503906 -422.894531 L 6.289062 -431.050781 Z M 4.617188 -420.292969 L 0.980469 -412.058594 L -1.761719 -413.269531 L 1.875 -421.503906 Z M 0.398438 -410.703125 L -3.074219 -402.414062 L -5.839844 -403.570312 L -2.367188 -411.863281 Z M -3.628906 -401.050781 L -6.949219 -392.691406 L -9.738281 -393.800781 L -6.417969 -402.160156 Z M -7.480469 -391.320312 L -10.644531 -382.882812 L -13.453125 -383.9375 L -10.285156 -392.371094 Z M -11.148438 -381.503906 L -14.140625 -373.035156 L -16.96875 -374.035156 L -13.972656 -382.503906 Z M -14.621094 -371.644531 L -17.460938 -363.105469 L -20.304688 -364.050781 L -17.464844 -372.589844 Z M -17.910156 -361.703125 L -20.585938 -353.113281 L -23.449219 -354.003906 L -20.773438 -362.59375 Z M -21.011719 -351.707031 L -23.523438 -343.074219 L -26.402344 -343.914062 L -23.890625 -352.542969 Z M -23.917969 -341.660156 L -26.273438 -332.960938 L -29.167969 -333.746094 L -26.8125 -342.441406 Z M -26.644531 -331.535156 L -28.824219 -322.824219 L -31.730469 -323.550781 L -29.550781 -332.261719 Z M -29.167969 -321.394531 L -31.183594 -312.628906 L -34.105469 -313.300781 L -32.089844 -322.066406 Z M -31.5 -311.1875 L -33.355469 -302.371094 L -36.289062 -302.988281 L -34.4375 -311.804688 Z M -33.644531 -300.933594 L -35.324219 -292.113281 L -38.269531 -292.675781 L -36.589844 -301.496094 Z M -35.585938 -290.664062 L -37.105469 -281.789062 L -40.0625 -282.292969 L -38.542969 -291.171875 Z M -37.34375 -280.332031 L -38.691406 -271.441406 L -41.65625 -271.890625 L -40.308594 -280.78125 Z M -38.898438 -269.988281 L -40.078125 -261.082031 L -43.050781 -261.472656 L -41.871094 -270.382812 Z M -40.257812 -259.617188 L -41.277344 -250.660156 L -44.253906 -250.996094 L -43.238281 -259.957031 Z M -41.429688 -249.1875 L -42.273438 -240.257812 L -45.257812 -240.542969 L -44.414062 -249.472656 Z M -42.398438 -238.796875 L -43.078125 -229.824219 L -46.066406 -230.050781 L -45.386719 -239.023438 Z M -43.175781 -228.355469 L -43.6875 -219.347656 L -46.683594 -219.519531 L -46.167969 -228.523438 Z M -43.757812 -217.886719 L -44.101562 -208.921875 L -47.097656 -209.035156 L -46.753906 -218 Z M -44.144531 -207.453125 L -44.324219 -198.445312 L -47.320312 -198.503906 L -47.144531 -207.511719 Z M -44.339844 -196.964844 L -44.363281 -191.691406 L -44.351562 -187.9375 L -47.347656 -187.925781 L -47.363281 -191.707031 L -47.335938 -196.980469 Z M -44.339844 -186.453125 L -44.183594 -177.441406 L -47.183594 -177.390625 L -47.335938 -186.402344 Z M -44.144531 -175.972656 L -43.824219 -167 L -46.820312 -166.894531 L -47.140625 -175.863281 Z M -43.757812 -165.539062 L -43.269531 -156.542969 L -46.265625 -156.378906 L -46.753906 -165.375 Z M -43.175781 -155.070312 L -42.519531 -146.089844 L -45.511719 -145.875 L -46.167969 -154.851562 Z M -42.398438 -144.628906 L -41.578125 -135.695312 L -44.566406 -135.421875 L -45.386719 -144.351562 Z M -41.433594 -134.234375 L -40.4375 -125.265625 L -43.417969 -124.9375 L -44.414062 -133.902344 Z M -40.261719 -123.804688 L -39.105469 -114.886719 L -42.078125 -114.5 L -43.234375 -123.417969 Z M -38.902344 -113.433594 L -37.578125 -104.546875 L -40.542969 -104.105469 L -41.867188 -112.992188 Z M -37.347656 -103.089844 L -35.851562 -94.207031 L -38.808594 -93.707031 L -40.304688 -102.59375 Z M -35.59375 -92.757812 L -33.933594 -83.929688 L -36.878906 -83.375 L -38.539062 -92.203125 Z M -33.648438 -82.488281 L -31.820312 -73.675781 L -34.757812 -73.066406 L -36.585938 -81.878906 Z M -31.507812 -72.234375 L -29.511719 -63.457031 L -32.4375 -62.792969 L -34.429688 -71.570312 Z M -29.171875 -62.027344 L -27.015625 -53.3125 L -29.929688 -52.59375 L -32.082031 -61.308594 Z M -26.648438 -51.890625 L -24.320312 -43.183594 L -27.21875 -42.40625 L -29.546875 -51.113281 Z M -23.925781 -41.761719 L -21.4375 -33.121094 L -24.320312 -32.292969 L -26.808594 -40.933594 Z M -21.019531 -31.714844 L -18.367188 -23.125 L -21.234375 -22.238281 L -23.882812 -30.832031 Z M -17.917969 -21.71875 L -15.101562 -13.167969 L -17.949219 -12.230469 L -20.765625 -20.78125 Z M -14.628906 -11.777344 L -11.65625 -3.296875 L -14.484375 -2.304688 L -17.457031 -10.785156 Z M -11.15625 -1.917969 L -8.015625 6.523438 L -10.824219 7.570312 L -13.964844 -0.871094 Z M -7.488281 7.898438 L -4.191406 16.269531 L -6.980469 17.367188 L -10.277344 8.996094 Z M -3.640625 17.632812 L -0.191406 25.929688 L -2.957031 27.078125 L -6.410156 18.78125 Z M 0.386719 27.285156 L 4.003906 35.53125 L 1.257812 36.734375 L -2.359375 28.488281 Z M 4.605469 36.871094 L 8.371094 45.039062 L 5.648438 46.292969 L 1.882812 38.128906 Z M 9 46.367188 L 12.917969 54.464844 L 10.21875 55.773438 L 6.300781 47.671875 Z M 13.574219 55.785156 L 17.644531 63.808594 L 14.972656 65.164062 L 10.898438 57.140625 Z M 18.324219 65.113281 L 22.542969 73.046875 L 19.894531 74.457031 L 15.675781 66.519531 Z M 23.246094 74.339844 L 27.621094 82.210938 L 25 83.667969 L 20.625 75.796875 Z M 28.347656 83.488281 L 32.867188 91.265625 L 30.273438 92.773438 L 25.753906 84.996094 Z M 33.617188 92.53125 L 38.28125 100.222656 L 35.71875 101.777344 L 31.054688 94.085938 Z M 39.0625 101.484375 C 40.640625 104.023438 42.238281 106.550781 43.859375 109.066406 L 41.339844 110.691406 C 39.710938 108.160156 38.101562 105.621094 36.515625 103.066406 Z M 44.671875 110.324219 C 46.296875 112.832031 47.941406 115.328125 49.605469 117.8125 L 47.117188 119.480469 C 45.441406 116.984375 43.789062 114.476562 42.152344 111.953125 Z M 50.441406 119.050781 C 52.113281 121.53125 53.804688 124 55.519531 126.453125 L 53.0625 128.167969 C 51.335938 125.699219 49.636719 123.222656 47.953125 120.726562 Z M 56.378906 127.675781 C 58.097656 130.125 59.835938 132.558594 61.59375 134.976562 L 59.167969 136.738281 C 57.398438 134.308594 55.652344 131.863281 53.921875 129.402344 Z M 62.472656 136.183594 C 64.238281 138.601562 66.019531 141 67.824219 143.386719 L 65.429688 145.195312 C 63.617188 142.792969 61.824219 140.378906 60.050781 137.953125 Z M 68.726562 144.578125 C 70.535156 146.960938 72.363281 149.328125 74.210938 151.679688 L 71.855469 153.53125 C 69.996094 151.167969 68.15625 148.785156 66.339844 146.390625 Z M 75.136719 152.855469 C 76.988281 155.199219 78.859375 157.53125 80.753906 159.847656 L 78.429688 161.746094 C 76.53125 159.417969 74.648438 157.070312 72.785156 154.710938 Z M 81.699219 161.003906 C 83.597656 163.316406 85.511719 165.613281 87.449219 167.898438 L 85.160156 169.835938 C 83.214844 167.542969 81.289062 165.230469 79.382812 162.90625 Z M 88.417969 169.035156 C 90.359375 171.3125 92.316406 173.574219 94.292969 175.816406 L 92.042969 177.796875 C 90.054688 175.539062 88.082031 173.269531 86.132812 170.980469 Z M 95.28125 176.9375 C 97.261719 179.175781 99.261719 181.398438 101.28125 183.605469 L 99.070312 185.628906 C 97.039062 183.410156 95.027344 181.175781 93.035156 178.925781 Z M 102.292969 184.710938 C 104.316406 186.910156 106.359375 189.097656 108.417969 191.265625 L 106.242188 193.332031 C 104.171875 191.148438 102.121094 188.953125 100.085938 186.738281 Z M 109.449219 192.351562 C 111.511719 194.511719 113.59375 196.660156 115.695312 198.789062 L 113.558594 200.894531 C 111.449219 198.753906 109.355469 196.597656 107.277344 194.417969 Z M 116.746094 199.855469 C 118.847656 201.980469 120.972656 204.085938 123.109375 206.175781 L 121.015625 208.320312 C 118.863281 206.21875 116.730469 204.101562 114.613281 201.964844 Z M 124.179688 207.21875 C 126.328125 209.308594 128.488281 211.375 130.664062 213.421875 L 128.605469 215.605469 C 126.417969 213.546875 124.246094 211.46875 122.089844 209.371094 Z M 131.753906 214.449219 C 133.9375 216.492188 136.136719 218.519531 138.351562 220.527344 L 136.335938 222.75 C 134.109375 220.730469 131.898438 218.691406 129.703125 216.636719 Z M 139.460938 221.53125 C 141.675781 223.53125 143.914062 225.515625 146.167969 227.488281 L 144.195312 229.746094 C 141.929688 227.765625 139.683594 225.769531 137.453125 223.757812 Z M 147.296875 228.46875 C 149.554688 230.429688 151.828125 232.375 154.117188 234.300781 L 152.1875 236.59375 C 149.882812 234.65625 147.597656 232.703125 145.328125 230.734375 Z M 155.261719 235.261719 C 157.554688 237.179688 159.867188 239.078125 162.191406 240.960938 L 160.304688 243.292969 C 157.964844 241.398438 155.644531 239.488281 153.339844 237.558594 Z M 163.355469 241.898438 C 165.683594 243.773438 168.027344 245.632812 170.386719 247.46875 L 168.542969 249.835938 C 166.171875 247.984375 163.8125 246.121094 161.472656 244.234375 Z M 171.566406 248.386719 C 173.929688 250.21875 176.3125 252.03125 178.707031 253.828125 L 176.910156 256.226562 C 174.5 254.421875 172.109375 252.597656 169.730469 250.757812 Z M 179.90625 254.722656 C 182.304688 256.507812 184.714844 258.277344 187.140625 260.023438 L 185.386719 262.453125 C 182.945312 260.699219 180.523438 258.921875 178.113281 257.125 Z M 188.351562 260.894531 C 190.785156 262.636719 193.230469 264.359375 195.691406 266.0625 L 193.984375 268.527344 C 191.511719 266.816406 189.054688 265.085938 186.605469 263.332031 Z M 196.921875 266.910156 C 199.382812 268.605469 201.859375 270.28125 204.351562 271.9375 L 202.691406 274.4375 C 200.1875 272.769531 197.699219 271.085938 195.21875 269.382812 Z M 205.597656 272.765625 C 208.09375 274.414062 210.597656 276.042969 213.121094 277.652344 L 211.507812 280.179688 C 208.96875 278.558594 206.449219 276.921875 203.945312 275.265625 Z M 214.382812 278.453125 C 216.910156 280.054688 219.449219 281.640625 222 283.199219 L 220.433594 285.757812 C 217.871094 284.1875 215.316406 282.597656 212.773438 280.984375 Z M 223.269531 283.972656 L 230.984375 288.582031 L 229.449219 291.15625 L 221.730469 286.546875 Z M 232.253906 289.324219 L 240.066406 293.792969 L 238.574219 296.394531 L 230.765625 291.929688 Z M 241.347656 294.511719 L 249.242188 298.832031 L 247.804688 301.460938 L 239.910156 297.140625 Z M 250.539062 299.527344 L 258.507812 303.691406 L 257.117188 306.347656 L 249.148438 302.183594 Z M 259.816406 304.363281 L 267.871094 308.382812 L 266.53125 311.066406 L 258.476562 307.042969 Z M 269.195312 309.027344 L 277.3125 312.890625 L 276.023438 315.597656 L 267.90625 311.734375 Z M 278.644531 313.507812 L 286.839844 317.21875 L 285.601562 319.953125 L 277.410156 316.242188 Z M 288.1875 317.816406 L 296.457031 321.375 L 295.273438 324.128906 L 287 320.570312 Z M 297.8125 321.941406 L 306.132812 325.335938 L 305 328.113281 L 296.679688 324.71875 Z M 307.5 325.878906 L 315.898438 329.121094 L 314.820312 331.917969 L 306.421875 328.675781 Z M 317.277344 329.636719 L 325.726562 332.71875 L 324.699219 335.535156 L 316.25 332.457031 Z M 327.113281 333.207031 L 335.617188 336.125 L 334.644531 338.960938 L 326.136719 336.042969 Z M 337.011719 336.589844 L 345.589844 339.351562 L 344.671875 342.207031 L 336.09375 339.445312 Z M 346.996094 339.789062 L 355.59375 342.378906 L 354.730469 345.25 L 346.132812 342.660156 Z M 357.003906 342.789062 L 365.667969 345.222656 L 364.859375 348.109375 L 356.195312 345.675781 Z M 367.089844 345.605469 L 375.804688 347.875 L 375.046875 350.777344 L 366.335938 348.507812 Z M 377.226562 348.230469 L 385.964844 350.328125 L 385.261719 353.242188 L 376.527344 351.144531 Z M 387.398438 350.660156 L 396.195312 352.597656 L 395.550781 355.523438 L 386.753906 353.585938 Z M 397.640625 352.898438 L 406.445312 354.664062 L 405.859375 357.605469 L 397.050781 355.839844 Z M 407.890625 354.941406 L 416.738281 356.542969 L 416.207031 359.492188 L 407.355469 357.890625 Z M 418.191406 356.789062 L 427.09375 358.226562 L 426.617188 361.1875 L 417.710938 359.75 Z M 428.546875 358.449219 L 437.429688 359.710938 L 437.007812 362.679688 L 428.125 361.417969 Z M 438.886719 359.902344 L 447.820312 361.003906 L 447.453125 363.980469 L 438.519531 362.878906 Z M 449.285156 361.167969 L 458.242188 362.101562 L 457.929688 365.082031 L 448.976562 364.152344 Z M 459.699219 362.238281 L 468.648438 363 L 468.394531 365.988281 L 459.445312 365.226562 Z M 470.117188 363.113281 L 479.109375 363.707031 L 478.910156 366.699219 L 469.917969 366.105469 Z M 480.585938 363.792969 L 489.558594 364.21875 L 489.414062 367.214844 L 480.441406 366.789062 Z M 491.023438 364.277344 L 500.007812 364.539062 L 499.921875 367.535156 L 490.9375 367.273438 Z M 501.480469 364.566406 L 510.507812 364.664062 L 510.476562 367.660156 L 501.449219 367.566406 Z M 512 364.664062 L 521.015625 364.59375 L 521.042969 367.589844 L 512 367.664062 Z M 522.492188 364.566406 L 531.480469 364.328125 L 531.5625 367.328125 L 522.570312 367.566406 Z M 532.949219 364.277344 L 541.910156 363.875 L 542.046875 366.871094 L 533.085938 367.273438 Z M 543.386719 363.792969 L 552.386719 363.222656 L 552.578125 366.214844 L 543.578125 366.785156 Z M 553.855469 363.113281 L 562.8125 362.375 L 563.058594 365.363281 L 554.101562 366.101562 Z M 564.269531 362.242188 L 573.21875 361.335938 L 573.523438 364.320312 L 564.574219 365.226562 Z M 574.6875 361.171875 L 583.628906 360.097656 L 583.988281 363.074219 L 575.042969 364.148438 Z M 585.085938 359.90625 L 593.976562 358.667969 L 594.390625 361.636719 L 585.5 362.878906 Z M 595.425781 358.453125 L 604.328125 357.039062 L 604.796875 360 L 595.898438 361.414062 Z M 605.78125 356.792969 L 614.640625 355.21875 L 615.164062 358.167969 L 606.308594 359.746094 Z M 616.082031 354.945312 L 624.890625 353.207031 L 625.46875 356.148438 L 616.664062 357.886719 Z M 626.332031 352.90625 L 635.140625 350.992188 L 635.777344 353.921875 L 626.96875 355.835938 Z M 636.574219 350.664062 L 645.320312 348.589844 L 646.011719 351.507812 L 637.269531 353.582031 Z M 646.746094 348.238281 L 655.457031 345.996094 L 656.203125 348.898438 L 647.492188 351.140625 Z M 656.882812 345.613281 L 665.554688 343.203125 L 666.359375 346.09375 L 657.683594 348.503906 Z M 666.96875 342.796875 L 675.574219 340.230469 L 676.433594 343.101562 L 667.824219 345.671875 Z M 676.976562 339.796875 L 685.5625 337.058594 L 686.472656 339.914062 L 677.886719 342.652344 Z M 686.960938 336.597656 L 695.476562 333.703125 L 696.441406 336.542969 L 687.925781 339.4375 Z M 696.863281 333.214844 L 705.316406 330.160156 L 706.332031 332.980469 L 697.882812 336.035156 Z M 706.695312 329.648438 L 715.105469 326.429688 L 716.175781 329.226562 L 707.769531 332.449219 Z M 716.472656 325.890625 L 724.804688 322.515625 L 725.929688 325.296875 L 717.597656 328.667969 Z M 726.160156 321.953125 L 734.4375 318.417969 L 735.617188 321.175781 L 727.339844 324.710938 Z M 735.789062 317.828125 L 743.992188 314.136719 L 745.222656 316.871094 L 737.015625 320.5625 Z M 745.328125 313.519531 L 753.453125 309.683594 L 754.734375 312.394531 L 746.609375 316.230469 Z M 754.78125 309.039062 L 762.847656 305.039062 L 764.179688 307.726562 L 756.113281 311.726562 Z M 764.160156 304.375 L 772.136719 300.226562 L 773.519531 302.890625 L 765.542969 307.035156 Z M 773.4375 299.539062 L 781.339844 295.242188 L 782.773438 297.875 L 774.867188 302.171875 Z M 782.625 294.527344 L 790.449219 290.078125 L 791.929688 292.683594 L 784.109375 297.132812 Z M 791.722656 289.339844 L 799.453125 284.75 L 800.980469 287.328125 L 793.25 291.917969 Z M 800.71875 283.980469 C 803.273438 282.429688 805.816406 280.851562 808.351562 279.253906 L 809.949219 281.792969 C 807.40625 283.394531 804.847656 284.980469 802.277344 286.542969 Z M 809.617188 278.457031 C 812.144531 276.851562 814.65625 275.226562 817.152344 273.589844 L 818.796875 276.09375 C 816.289062 277.746094 813.761719 279.375 811.222656 280.988281 Z M 818.398438 272.765625 C 820.890625 271.121094 823.371094 269.453125 825.84375 267.761719 L 827.535156 270.234375 C 825.054688 271.933594 822.558594 273.613281 820.054688 275.269531 Z M 827.078125 266.914062 C 829.539062 265.21875 831.988281 263.503906 834.425781 261.765625 L 836.167969 264.207031 C 833.71875 265.953125 831.253906 267.679688 828.777344 269.382812 Z M 835.644531 260.894531 C 838.074219 259.15625 840.488281 257.394531 842.894531 255.613281 L 844.679688 258.023438 C 842.261719 259.8125 839.835938 261.582031 837.390625 263.335938 Z M 844.09375 254.722656 C 846.488281 252.9375 848.875 251.132812 851.246094 249.304688 L 853.074219 251.679688 C 850.691406 253.515625 848.292969 255.332031 845.882812 257.128906 Z M 852.429688 248.390625 C 854.789062 246.5625 857.140625 244.710938 859.476562 242.839844 L 861.351562 245.179688 C 859 247.0625 856.636719 248.921875 854.265625 250.761719 Z M 860.644531 241.902344 C 862.96875 240.027344 865.285156 238.136719 867.585938 236.222656 L 869.503906 238.527344 C 867.195312 240.445312 864.867188 242.351562 862.523438 244.238281 Z M 868.734375 235.261719 C 871.027344 233.34375 873.308594 231.40625 875.570312 229.449219 L 877.53125 231.71875 C 875.253906 233.683594 872.964844 235.632812 870.65625 237.5625 Z M 876.699219 228.472656 C 878.960938 226.507812 881.203125 224.53125 883.425781 222.535156 L 885.429688 224.765625 C 883.191406 226.773438 880.9375 228.761719 878.667969 230.734375 Z M 884.539062 221.535156 C 886.757812 219.53125 888.960938 217.507812 891.152344 215.46875 L 893.195312 217.664062 C 890.996094 219.714844 888.777344 221.746094 886.546875 223.761719 Z M 892.242188 214.449219 C 894.425781 212.40625 896.59375 210.34375 898.742188 208.265625 L 900.828125 210.417969 C 898.664062 212.511719 896.488281 214.585938 894.292969 216.636719 Z M 899.816406 207.222656 C 901.964844 205.136719 904.089844 203.035156 906.199219 200.917969 L 908.324219 203.035156 C 906.199219 205.167969 904.058594 207.28125 901.90625 209.375 Z M 907.253906 199.855469 C 909.355469 197.734375 911.445312 195.589844 913.515625 193.433594 L 915.679688 195.507812 C 913.597656 197.679688 911.496094 199.832031 909.382812 201.96875 Z M 914.550781 192.351562 C 916.613281 190.1875 918.664062 188.007812 920.691406 185.8125 L 922.894531 187.847656 C 920.851562 190.054688 918.792969 192.246094 916.71875 194.421875 Z M 921.707031 184.710938 C 923.730469 182.511719 925.734375 180.292969 927.722656 178.058594 L 929.964844 180.050781 C 927.960938 182.300781 925.945312 184.53125 923.914062 186.742188 Z M 928.714844 176.941406 C 930.699219 174.703125 932.660156 172.449219 934.609375 170.175781 L 936.886719 172.125 C 934.929688 174.410156 932.957031 176.675781 930.960938 178.929688 Z M 935.582031 169.039062 C 937.519531 166.761719 939.441406 164.472656 941.347656 162.164062 L 943.660156 164.070312 C 941.742188 166.394531 939.8125 168.699219 937.863281 170.984375 Z M 942.296875 161.007812 C 944.195312 158.695312 946.074219 156.371094 947.933594 154.03125 L 950.28125 155.894531 C 948.410156 158.25 946.519531 160.589844 944.617188 162.910156 Z M 948.859375 152.855469 C 950.710938 150.511719 952.546875 148.148438 954.363281 145.769531 L 956.746094 147.589844 C 954.921875 149.980469 953.078125 152.355469 951.214844 154.714844 Z M 955.273438 144.582031 C 957.082031 142.199219 958.871094 139.804688 960.640625 137.394531 L 963.058594 139.167969 C 961.277344 141.589844 959.480469 144 957.660156 146.394531 Z M 961.523438 136.1875 C 963.289062 133.773438 965.035156 131.34375 966.757812 128.902344 L 969.207031 130.632812 C 967.476562 133.082031 965.722656 135.523438 963.945312 137.957031 Z M 967.621094 127.679688 C 969.339844 125.234375 971.039062 122.769531 972.71875 120.292969 L 975.199219 121.976562 C 973.511719 124.464844 971.804688 126.941406 970.074219 129.402344 Z M 973.558594 119.054688 C 975.230469 116.578125 976.878906 114.085938 978.511719 111.582031 L 981.023438 113.21875 C 979.386719 115.734375 977.726562 118.238281 976.042969 120.730469 Z M 979.328125 110.328125 C 980.949219 107.820312 982.558594 105.296875 984.144531 102.757812 L 986.6875 104.34375 C 985.09375 106.894531 983.480469 109.429688 981.84375 111.957031 Z M 984.929688 101.496094 L 989.613281 93.816406 L 992.175781 95.378906 L 987.488281 103.058594 Z M 990.367188 92.554688 L 994.90625 84.789062 L 997.496094 86.304688 L 992.957031 94.066406 Z M 995.636719 83.511719 L 1000.035156 75.65625 L 1002.648438 77.121094 L 998.253906 84.976562 Z M 1000.742188 74.367188 L 1004.980469 66.441406 L 1007.625 67.855469 L 1003.382812 75.78125 Z M 1005.664062 65.136719 L 1009.757812 57.125 L 1012.425781 58.492188 L 1008.332031 66.503906 Z M 1010.414062 55.808594 L 1014.359375 47.71875 L 1017.054688 49.03125 L 1013.109375 57.125 Z M 1014.988281 46.390625 L 1018.773438 38.238281 L 1021.496094 39.5 L 1017.710938 47.65625 Z M 1019.382812 36.898438 L 1023.019531 28.664062 L 1025.761719 29.875 L 1022.125 38.109375 Z M 1023.601562 27.308594 L 1027.074219 19.019531 L 1029.839844 20.175781 L 1026.367188 28.46875 Z M 1027.628906 17.65625 L 1030.949219 9.296875 L 1033.734375 10.402344 L 1030.417969 18.761719 Z M 1031.480469 7.925781 L 1034.644531 -0.511719 L 1037.449219 0.542969 L 1034.285156 8.976562 Z M 1035.144531 -1.890625 L 1038.140625 -10.359375 L 1040.96875 -9.359375 L 1037.972656 -0.890625 Z M 1038.617188 -11.75 L 1041.460938 -20.292969 L 1044.304688 -19.34375 L 1041.464844 -10.804688 Z M 1041.910156 -21.695312 L 1044.585938 -30.28125 L 1047.449219 -29.390625 L 1044.773438 -20.800781 Z M 1045.011719 -31.6875 L 1047.523438 -40.320312 L 1050.402344 -39.480469 L 1047.890625 -30.851562 Z M 1047.917969 -41.734375 L 1050.269531 -50.433594 L 1053.164062 -49.652344 L 1050.8125 -40.953125 Z M 1050.644531 -51.863281 L 1052.824219 -60.570312 L 1055.730469 -59.84375 L 1053.550781 -51.132812 Z M 1053.164062 -62 L 1055.183594 -70.769531 L 1058.105469 -70.09375 L 1056.085938 -61.328125 Z M 1055.5 -72.207031 L 1057.355469 -81.023438 L 1060.289062 -80.40625 L 1058.433594 -71.589844 Z M 1057.644531 -82.460938 L 1059.324219 -91.28125 L 1062.269531 -90.722656 L 1060.589844 -81.898438 Z M 1059.585938 -92.730469 L 1061.105469 -101.605469 L 1064.0625 -101.101562 L 1062.542969 -92.222656 Z M 1061.339844 -103.0625 L 1062.691406 -111.953125 L 1065.65625 -111.503906 L 1064.304688 -102.613281 Z M 1062.898438 -113.40625 L 1064.078125 -122.316406 L 1067.050781 -121.921875 L 1065.871094 -113.011719 Z M 1064.257812 -123.777344 L 1065.277344 -132.738281 L 1068.253906 -132.398438 L 1067.238281 -123.4375 Z M 1065.429688 -134.207031 L 1066.273438 -143.136719 L 1069.257812 -142.855469 L 1068.414062 -133.921875 Z M 1066.398438 -144.597656 L 1067.078125 -153.570312 L 1070.066406 -153.34375 L 1069.386719 -144.371094 Z M 1067.175781 -155.042969 L 1067.6875 -164.046875 L 1070.683594 -163.875 L 1070.167969 -154.871094 Z M 1067.757812 -165.511719 L 1068.101562 -174.472656 L 1071.097656 -174.359375 L 1070.753906 -165.394531 Z M 1068.144531 -175.945312 L 1068.324219 -184.949219 L 1071.320312 -184.890625 L 1071.140625 -175.882812 Z M 1068.339844 -186.429688 L 1068.363281 -191.707031 L 1068.351562 -195.457031 L 1071.347656 -195.46875 L 1071.363281 -191.691406 L 1071.335938 -186.417969 Z M 1068.339844 -196.941406 L 1068.183594 -205.953125 L 1071.183594 -206.003906 L 1071.335938 -196.992188 Z M 1068.144531 -207.425781 L 1067.824219 -216.394531 L 1070.820312 -216.5 L 1071.140625 -207.53125 Z M 1067.757812 -217.859375 L 1067.269531 -226.855469 L 1070.265625 -227.015625 L 1070.753906 -218.019531 Z M 1067.175781 -228.324219 L 1066.519531 -237.304688 L 1069.511719 -237.523438 L 1070.167969 -228.542969 Z M 1066.398438 -238.769531 L 1065.578125 -247.699219 L 1068.566406 -247.972656 L 1069.386719 -239.042969 Z M 1065.433594 -249.160156 L 1064.4375 -258.128906 L 1067.417969 -258.457031 L 1068.414062 -249.492188 Z M 1064.261719 -259.589844 L 1063.105469 -268.507812 L 1066.078125 -268.894531 L 1067.234375 -259.976562 Z M 1062.902344 -269.960938 L 1061.578125 -278.847656 L 1064.542969 -279.289062 L 1065.867188 -270.402344 Z M 1061.347656 -280.304688 L 1059.851562 -289.191406 L 1062.808594 -289.6875 L 1064.304688 -280.800781 Z M 1059.59375 -290.636719 L 1057.933594 -299.46875 L 1060.878906 -300.019531 L 1062.539062 -291.191406 Z M 1057.648438 -300.90625 L 1055.820312 -309.722656 L 1058.757812 -310.332031 L 1060.585938 -301.515625 Z M 1055.507812 -311.160156 L 1053.511719 -319.9375 L 1056.4375 -320.601562 L 1058.429688 -311.824219 Z M 1053.171875 -321.367188 L 1051.015625 -330.082031 L 1053.929688 -330.800781 L 1056.082031 -322.085938 Z M 1050.652344 -331.507812 L 1048.320312 -340.214844 L 1051.21875 -340.988281 L 1053.546875 -332.28125 Z M 1047.925781 -341.632812 L 1045.4375 -350.273438 L 1048.320312 -351.101562 L 1050.808594 -342.460938 Z M 1045.019531 -351.679688 L 1042.367188 -360.269531 L 1045.234375 -361.15625 L 1047.882812 -352.5625 Z M 1041.921875 -361.675781 L 1039.101562 -370.226562 L 1041.949219 -371.164062 L 1044.769531 -362.613281 Z M 1038.628906 -371.617188 L 1035.65625 -380.097656 L 1038.484375 -381.089844 L 1041.457031 -372.609375 Z M 1035.15625 -381.480469 L 1032.015625 -389.917969 L 1034.828125 -390.964844 L 1037.964844 -382.523438 Z M 1031.488281 -391.292969 L 1028.191406 -399.664062 L 1030.984375 -400.761719 L 1034.28125 -392.390625 Z M 1027.640625 -401.027344 L 1024.191406 -409.324219 L 1026.960938 -410.476562 L 1030.410156 -402.179688 Z M 1023.613281 -410.679688 L 1019.996094 -418.925781 L 1022.742188 -420.128906 L 1026.359375 -411.882812 Z M 1019.394531 -420.269531 L 1015.628906 -428.433594 L 1018.351562 -429.6875 L 1022.117188 -421.523438 Z M 1015.003906 -429.761719 L 1011.082031 -437.859375 L 1013.78125 -439.167969 L 1017.703125 -431.066406 Z M 1010.429688 -439.179688 L 1006.355469 -447.203125 L 1009.027344 -448.558594 L 1013.101562 -440.535156 Z M 1005.675781 -448.507812 L 1001.457031 -456.445312 L 1004.105469 -457.851562 L 1008.324219 -449.914062 Z M 1000.753906 -457.738281 L 996.378906 -465.605469 L 999 -467.0625 L 1003.375 -459.195312 Z M 995.652344 -466.882812 L 991.132812 -474.660156 L 993.726562 -476.167969 L 998.246094 -468.390625 Z M 990.382812 -475.925781 L 985.71875 -483.617188 L 988.285156 -485.171875 L 992.949219 -477.480469 Z M 984.9375 -484.878906 C 983.359375 -487.421875 981.757812 -489.949219 980.140625 -492.464844 L 982.660156 -494.085938 C 984.289062 -491.558594 985.898438 -489.015625 987.484375 -486.460938 Z M 979.328125 -493.71875 C 977.703125 -496.230469 976.058594 -498.726562 974.394531 -501.207031 L 976.886719 -502.878906 C 978.558594 -500.382812 980.210938 -497.871094 981.847656 -495.347656 Z M 973.5625 -502.445312 C 971.886719 -504.925781 970.195312 -507.394531 968.480469 -509.847656 L 970.941406 -511.5625 C 972.660156 -509.097656 974.363281 -506.617188 976.046875 -504.125 Z M 967.625 -511.074219 C 965.90625 -513.519531 964.167969 -515.953125 962.410156 -518.371094 L 964.835938 -520.136719 C 966.601562 -517.703125 968.351562 -515.253906 970.078125 -512.796875 Z M 961.527344 -519.582031 C 959.765625 -521.996094 957.980469 -524.394531 956.179688 -526.78125 L 958.570312 -528.589844 C 960.382812 -526.191406 962.175781 -523.777344 963.949219 -521.351562 Z M 955.273438 -527.972656 C 953.464844 -530.355469 951.636719 -532.722656 949.789062 -535.074219 L 952.148438 -536.925781 C 954.003906 -534.5625 955.84375 -532.179688 957.664062 -529.789062 Z M 948.863281 -536.25 C 947.011719 -538.597656 945.140625 -540.925781 943.246094 -543.246094 L 945.570312 -545.140625 C 947.46875 -542.8125 949.351562 -540.46875 951.21875 -538.109375 Z M 942.300781 -544.402344 C 940.40625 -546.710938 938.488281 -549.007812 936.554688 -551.292969 L 938.839844 -553.230469 C 940.785156 -550.9375 942.710938 -548.628906 944.617188 -546.304688 Z M 935.585938 -552.429688 C 933.644531 -554.707031 931.6875 -556.96875 929.710938 -559.210938 L 931.960938 -561.195312 C 933.949219 -558.9375 935.917969 -556.664062 937.867188 -554.375 Z M 928.71875 -560.332031 C 926.738281 -562.574219 924.738281 -564.796875 922.71875 -567.003906 L 924.933594 -569.027344 C 926.957031 -566.808594 928.96875 -564.574219 930.964844 -562.320312 Z M 921.710938 -568.105469 C 919.6875 -570.304688 917.644531 -572.492188 915.585938 -574.660156 L 917.757812 -576.726562 C 919.832031 -574.542969 921.882812 -572.347656 923.917969 -570.132812 Z M 914.554688 -575.746094 C 912.488281 -577.910156 910.40625 -580.058594 908.308594 -582.1875 L 910.441406 -584.289062 C 912.554688 -582.148438 914.648438 -579.992188 916.722656 -577.816406 Z M 907.257812 -583.25 C 905.152344 -585.375 903.03125 -587.480469 900.890625 -589.574219 L 902.988281 -591.714844 C 905.136719 -589.613281 907.269531 -587.496094 909.386719 -585.359375 Z M 899.820312 -590.617188 C 897.675781 -592.699219 895.515625 -594.769531 893.339844 -596.820312 L 895.394531 -599.003906 C 897.585938 -596.941406 899.757812 -594.859375 901.910156 -592.765625 Z M 892.246094 -597.84375 C 890.066406 -599.886719 887.867188 -601.914062 885.652344 -603.925781 L 887.664062 -606.144531 C 889.894531 -604.121094 892.105469 -602.085938 894.296875 -600.03125 Z M 884.542969 -604.925781 C 882.324219 -606.929688 880.085938 -608.914062 877.832031 -610.882812 L 879.804688 -613.140625 C 882.070312 -611.164062 884.316406 -609.167969 886.550781 -607.152344 Z M 876.707031 -611.863281 C 874.445312 -613.828125 872.171875 -615.769531 869.882812 -617.695312 L 871.8125 -619.988281 C 874.117188 -618.054688 876.402344 -616.101562 878.671875 -614.128906 Z M 868.738281 -618.65625 C 866.445312 -620.574219 864.136719 -622.476562 861.8125 -624.355469 L 863.699219 -626.6875 C 866.035156 -624.796875 868.355469 -622.882812 870.664062 -620.957031 Z M 860.648438 -625.296875 C 858.316406 -627.171875 855.972656 -629.027344 853.613281 -630.867188 L 855.457031 -633.230469 C 857.828125 -631.382812 860.183594 -629.519531 862.527344 -627.632812 Z M 852.433594 -631.78125 C 850.070312 -633.617188 847.6875 -635.429688 845.292969 -637.222656 L 847.09375 -639.621094 C 849.496094 -637.820312 851.890625 -635.996094 854.269531 -634.152344 Z M 844.097656 -638.117188 C 841.699219 -639.90625 839.285156 -641.671875 836.863281 -643.417969 L 838.617188 -645.851562 C 841.050781 -644.09375 843.476562 -642.320312 845.886719 -640.523438 Z M 835.648438 -644.289062 C 833.214844 -646.03125 830.769531 -647.753906 828.3125 -649.457031 L 830.019531 -651.921875 C 832.488281 -650.210938 834.949219 -648.480469 837.394531 -646.726562 Z M 827.082031 -650.308594 C 824.617188 -652.003906 822.140625 -653.679688 819.648438 -655.335938 L 821.308594 -657.832031 C 823.816406 -656.167969 826.304688 -654.480469 828.78125 -652.777344 Z M 818.402344 -656.160156 C 815.910156 -657.808594 813.402344 -659.4375 810.882812 -661.046875 L 812.496094 -663.574219 C 815.027344 -661.957031 817.550781 -660.320312 820.058594 -658.660156 Z M 809.621094 -661.847656 C 807.09375 -663.453125 804.554688 -665.035156 802 -666.597656 L 803.566406 -669.15625 C 806.132812 -667.585938 808.683594 -665.992188 811.226562 -664.382812 Z M 800.734375 -667.371094 L 793.015625 -671.980469 L 794.554688 -674.554688 L 802.269531 -669.945312 Z M 791.746094 -672.722656 L 783.9375 -677.1875 L 785.425781 -679.792969 L 793.234375 -675.324219 Z M 782.652344 -677.90625 L 774.757812 -682.226562 L 776.199219 -684.859375 L 784.089844 -680.539062 Z M 773.460938 -682.921875 L 765.496094 -687.089844 L 766.882812 -689.746094 L 774.851562 -685.578125 Z M 764.183594 -687.757812 L 756.128906 -691.777344 L 757.46875 -694.460938 L 765.523438 -690.441406 Z M 754.804688 -692.425781 L 746.6875 -696.285156 L 747.976562 -698.996094 L 756.09375 -695.132812 Z M 745.355469 -696.90625 L 737.160156 -700.617188 L 738.398438 -703.347656 L 746.59375 -699.636719 Z M 735.816406 -701.210938 L 727.542969 -704.769531 L 728.726562 -707.523438 L 737 -703.964844 Z M 726.1875 -705.335938 L 717.867188 -708.730469 L 719 -711.507812 L 727.320312 -708.113281 Z M 716.5 -709.273438 L 708.101562 -712.515625 L 709.183594 -715.3125 L 717.582031 -712.070312 Z M 706.722656 -713.035156 L 698.273438 -716.113281 L 699.300781 -718.929688 L 707.75 -715.851562 Z M 696.890625 -716.601562 L 688.382812 -719.519531 L 689.359375 -722.359375 L 697.863281 -719.441406 Z M 686.988281 -719.984375 L 678.410156 -722.746094 L 679.332031 -725.601562 L 687.90625 -722.839844 Z M 677.003906 -723.1875 L 668.40625 -725.777344 L 669.273438 -728.648438 L 677.871094 -726.058594 Z M 666.996094 -726.1875 L 658.332031 -728.617188 L 659.140625 -731.503906 L 667.808594 -729.074219 Z M 656.910156 -729.003906 L 648.199219 -731.269531 L 648.953125 -734.171875 L 657.664062 -731.90625 Z M 646.773438 -731.625 L 638.039062 -733.726562 L 638.738281 -736.640625 L 647.476562 -734.542969 Z M 636.605469 -734.054688 L 627.804688 -735.992188 L 628.453125 -738.921875 L 637.25 -736.984375 Z M 626.363281 -736.296875 L 617.554688 -738.0625 L 618.144531 -741.003906 L 626.953125 -739.238281 Z M 616.113281 -738.335938 L 607.261719 -739.9375 L 607.796875 -742.890625 L 616.644531 -741.289062 Z M 605.8125 -740.1875 L 596.90625 -741.625 L 597.382812 -744.585938 L 606.289062 -743.148438 Z M 595.457031 -741.84375 L 586.574219 -743.109375 L 586.996094 -746.074219 L 595.878906 -744.8125 Z M 585.117188 -743.300781 L 576.179688 -744.398438 L 576.546875 -747.375 L 585.480469 -746.277344 Z M 574.714844 -744.566406 L 565.757812 -745.496094 L 566.070312 -748.480469 L 575.023438 -747.550781 Z M 564.300781 -745.636719 L 555.351562 -746.398438 L 555.605469 -749.386719 L 564.554688 -748.625 Z M 553.886719 -746.507812 L 544.890625 -747.105469 L 545.089844 -750.097656 L 554.082031 -749.5 Z M 543.417969 -747.191406 L 534.445312 -747.617188 L 534.585938 -750.613281 L 543.558594 -750.183594 Z M 532.976562 -747.671875 L 523.992188 -747.933594 L 524.082031 -750.933594 L 533.066406 -750.671875 Z M 522.519531 -747.964844 L 513.496094 -748.058594 L 513.527344 -751.058594 L 522.550781 -750.960938 Z M 512.003906 -748.0625 L 512 -748.0625 L 502.980469 -747.988281 L 502.957031 -750.988281 L 512 -751.058594 L 512.003906 -751.058594 Z M 512.003906 -748.0625 " fill-opacity="1" fill-rule="nonzero"/></g></g></svg>