<svg xmlns="http://www.w3.org/2000/svg" xmlns:xlink="http://www.w3.org/1999/xlink" width="336" zoomAndPan="magnify" viewBox="0 0 252 143.999998" height="192" preserveAspectRatio="xMidYMid meet" version="1.0"><defs><g/></defs><rect x="-25.2" width="302.4" fill="#ffffff" y="-14.4" height="172.799997" fill-opacity="1"/><rect x="-25.2" width="302.4" fill="#ffffff" y="-14.4" height="172.799997" fill-opacity="1"/><g fill="#dccdb9" fill-opacity="1"><g transform="translate(54.067631, 82.499992)"><g><path d="M 8.578125 -0.21875 C 8.628906 -0.0703125 8.546875 0 8.328125 0 L 4.546875 0 C 4.304688 0 4.222656 -0.0976562 4.296875 -0.296875 L 4.734375 -1.765625 C 5.003906 -2.617188 5.144531 -3.570312 5.15625 -4.625 C 5.164062 -5.675781 5.035156 -6.628906 4.765625 -7.484375 L 3 -13.390625 C 2.757812 -14.242188 2.46875 -15.203125 2.125 -16.265625 C 1.78125 -17.328125 1.460938 -18.273438 1.171875 -19.109375 L 0.8125 -20.171875 C 0.757812 -20.367188 0.734375 -20.523438 0.734375 -20.640625 C 0.734375 -20.785156 0.816406 -20.859375 0.984375 -20.859375 L 4.953125 -20.859375 C 5.117188 -20.859375 5.203125 -20.785156 5.203125 -20.640625 C 5.203125 -20.523438 5.179688 -20.367188 5.140625 -20.171875 L 4.765625 -19.140625 C 4.472656 -18.285156 4.320312 -17.332031 4.3125 -16.28125 C 4.300781 -15.226562 4.414062 -14.273438 4.65625 -13.421875 L 6.421875 -7.4375 C 6.691406 -6.582031 6.984375 -5.628906 7.296875 -4.578125 C 7.617188 -3.523438 7.898438 -2.570312 8.140625 -1.71875 L 8.21875 -1.5 L 10.421875 -13.34375 C 10.585938 -14.226562 10.648438 -15.203125 10.609375 -16.265625 C 10.578125 -17.328125 10.4375 -18.285156 10.1875 -19.140625 L 9.9375 -20.171875 C 9.882812 -20.367188 9.859375 -20.523438 9.859375 -20.640625 C 9.859375 -20.785156 9.945312 -20.859375 10.125 -20.859375 L 13.09375 -20.859375 C 13.257812 -20.859375 13.34375 -20.785156 13.34375 -20.640625 C 13.34375 -20.523438 13.320312 -20.367188 13.28125 -20.171875 L 12.765625 -19.03125 C 12.421875 -18.195312 12.09375 -17.257812 11.78125 -16.21875 C 11.476562 -15.1875 11.242188 -14.226562 11.078125 -13.34375 Z M 8.578125 -0.21875 "/></g></g></g><g fill="#dccdb9" fill-opacity="1"><g transform="translate(66.933536, 82.499992)"><g><path d="M 12.9375 -0.296875 C 12.894531 -0.0976562 12.773438 0 12.578125 0 L 1.71875 0 C 1.550781 0 1.46875 -0.0820312 1.46875 -0.25 C 1.46875 -0.351562 1.492188 -0.503906 1.546875 -0.703125 L 1.90625 -1.765625 C 2.195312 -2.617188 2.429688 -3.578125 2.609375 -4.640625 C 2.796875 -5.703125 2.890625 -6.6875 2.890625 -7.59375 L 2.890625 -13.28125 C 2.890625 -14.175781 2.796875 -15.15625 2.609375 -16.21875 C 2.429688 -17.289062 2.195312 -18.253906 1.90625 -19.109375 L 1.546875 -20.171875 C 1.492188 -20.367188 1.46875 -20.523438 1.46875 -20.640625 C 1.46875 -20.785156 1.550781 -20.859375 1.71875 -20.859375 L 12.25 -20.859375 C 12.488281 -20.859375 12.609375 -20.765625 12.609375 -20.578125 L 13.3125 -15.921875 C 13.363281 -15.722656 13.265625 -15.625 13.015625 -15.625 L 12.390625 -15.625 C 12.171875 -15.625 12.035156 -15.722656 11.984375 -15.921875 L 11.546875 -17.421875 C 11.304688 -18.273438 10.8125 -18.960938 10.0625 -19.484375 C 9.320312 -20.015625 8.445312 -20.28125 7.4375 -20.28125 L 6.9375 -20.28125 C 6.25 -20.257812 5.691406 -20.0625 5.265625 -19.6875 C 4.835938 -19.320312 4.597656 -18.820312 4.546875 -18.1875 L 4.546875 -12.984375 L 7 -12.984375 C 7.519531 -12.984375 7.945312 -13.113281 8.28125 -13.375 C 8.625 -13.644531 8.832031 -14.003906 8.90625 -14.453125 L 8.984375 -15.078125 C 9.035156 -15.265625 9.15625 -15.359375 9.34375 -15.359375 L 9.578125 -15.359375 C 9.816406 -15.359375 9.910156 -15.265625 9.859375 -15.078125 L 9.28125 -10.265625 C 9.28125 -10.066406 9.15625 -9.96875 8.90625 -9.96875 L 8.6875 -9.96875 C 8.488281 -9.96875 8.390625 -10.066406 8.390625 -10.265625 L 8.515625 -10.890625 C 8.554688 -11.328125 8.441406 -11.6875 8.171875 -11.96875 C 7.910156 -12.25 7.519531 -12.390625 7 -12.390625 L 4.546875 -12.390625 L 4.546875 -2.671875 C 4.597656 -2.066406 4.835938 -1.570312 5.265625 -1.1875 C 5.691406 -0.8125 6.25 -0.613281 6.9375 -0.59375 L 7.78125 -0.59375 C 8.78125 -0.59375 9.648438 -0.851562 10.390625 -1.375 C 11.140625 -1.894531 11.632812 -2.597656 11.875 -3.484375 L 12.328125 -4.953125 C 12.367188 -5.148438 12.5 -5.25 12.71875 -5.25 L 13.34375 -5.25 C 13.59375 -5.25 13.691406 -5.148438 13.640625 -4.953125 Z M 12.9375 -0.296875 "/></g></g></g><g fill="#dccdb9" fill-opacity="1"><g transform="translate(81.08246, 82.499992)"><g><path d="M 18.1875 -10.421875 C 18.1875 -8.335938 17.695312 -6.515625 16.71875 -4.953125 C 15.738281 -3.390625 14.363281 -2.171875 12.59375 -1.296875 C 10.820312 -0.429688 8.765625 0 6.421875 0 C 6.316406 0 6.222656 0 6.140625 0 C 6.054688 0 5.96875 0 5.875 0 L 1.71875 0 C 1.550781 0 1.46875 -0.0820312 1.46875 -0.25 C 1.46875 -0.351562 1.492188 -0.503906 1.546875 -0.703125 L 1.90625 -1.765625 C 2.175781 -2.617188 2.394531 -3.578125 2.5625 -4.640625 C 2.738281 -5.703125 2.828125 -6.6875 2.828125 -7.59375 L 2.828125 -13.3125 C 2.828125 -14.1875 2.738281 -15.160156 2.5625 -16.234375 C 2.394531 -17.316406 2.175781 -18.273438 1.90625 -19.109375 L 1.546875 -20.171875 C 1.492188 -20.367188 1.46875 -20.523438 1.46875 -20.640625 C 1.46875 -20.785156 1.550781 -20.859375 1.71875 -20.859375 L 5.875 -20.859375 C 5.96875 -20.859375 6.054688 -20.859375 6.140625 -20.859375 C 6.222656 -20.859375 6.316406 -20.859375 6.421875 -20.859375 C 8.765625 -20.859375 10.816406 -20.414062 12.578125 -19.53125 C 14.335938 -18.65625 15.710938 -17.4375 16.703125 -15.875 C 17.691406 -14.3125 18.1875 -12.492188 18.1875 -10.421875 Z M 5.828125 -0.703125 C 7.835938 -0.628906 9.597656 -0.984375 11.109375 -1.765625 C 12.628906 -2.546875 13.820312 -3.675781 14.6875 -5.15625 C 15.550781 -6.632812 15.984375 -8.363281 15.984375 -10.34375 C 16.015625 -12.34375 15.609375 -14.085938 14.765625 -15.578125 C 13.921875 -17.078125 12.742188 -18.226562 11.234375 -19.03125 C 9.734375 -19.84375 7.984375 -20.210938 5.984375 -20.140625 C 5.640625 -20.140625 5.363281 -19.867188 5.15625 -19.328125 C 4.945312 -18.785156 4.785156 -18.140625 4.671875 -17.390625 C 4.566406 -16.648438 4.492188 -15.960938 4.453125 -15.328125 C 4.421875 -14.691406 4.40625 -14.265625 4.40625 -14.046875 C 4.40625 -12.847656 4.40625 -11.6875 4.40625 -10.5625 C 4.40625 -9.4375 4.40625 -8.265625 4.40625 -7.046875 C 4.40625 -6.867188 4.414062 -6.546875 4.4375 -6.078125 C 4.457031 -5.617188 4.5 -5.082031 4.5625 -4.46875 C 4.625 -3.863281 4.707031 -3.269531 4.8125 -2.6875 C 4.925781 -2.113281 5.066406 -1.640625 5.234375 -1.265625 C 5.410156 -0.890625 5.609375 -0.703125 5.828125 -0.703125 Z M 5.828125 -0.703125 "/></g></g></g><g fill="#dccdb9" fill-opacity="1"><g transform="translate(98.786836, 82.499992)"><g><path d="M 6.671875 -0.21875 C 6.671875 -0.0703125 6.585938 0 6.421875 0 L 2.453125 0 C 2.285156 0 2.203125 -0.0820312 2.203125 -0.25 C 2.203125 -0.351562 2.226562 -0.503906 2.28125 -0.703125 L 2.640625 -1.765625 C 2.929688 -2.617188 3.164062 -3.578125 3.34375 -4.640625 C 3.53125 -5.703125 3.625 -6.6875 3.625 -7.59375 L 3.625 -13.3125 C 3.625 -14.1875 3.53125 -15.160156 3.34375 -16.234375 C 3.164062 -17.316406 2.929688 -18.273438 2.640625 -19.109375 L 2.28125 -20.171875 C 2.226562 -20.367188 2.203125 -20.523438 2.203125 -20.640625 C 2.203125 -20.785156 2.285156 -20.859375 2.453125 -20.859375 L 6.421875 -20.859375 C 6.585938 -20.859375 6.671875 -20.785156 6.671875 -20.640625 C 6.671875 -20.523438 6.644531 -20.367188 6.59375 -20.171875 L 6.234375 -19.109375 C 5.992188 -18.347656 5.785156 -17.492188 5.609375 -16.546875 C 5.441406 -15.609375 5.332031 -14.710938 5.28125 -13.859375 L 5.28125 -7 C 5.332031 -6.164062 5.441406 -5.28125 5.609375 -4.34375 C 5.785156 -3.40625 5.992188 -2.554688 6.234375 -1.796875 L 6.59375 -0.703125 C 6.644531 -0.554688 6.671875 -0.394531 6.671875 -0.21875 Z M 6.671875 -0.21875 "/></g></g></g><g fill="#dccdb9" fill-opacity="1"><g transform="translate(105.89753, 82.499992)"><g><path d="M 23.359375 -4.4375 C 22.378906 -2.894531 21.003906 -1.703125 19.234375 -0.859375 C 17.460938 -0.015625 15.441406 0.40625 13.171875 0.40625 C 10.816406 0.40625 8.75 -0.046875 6.96875 -0.953125 C 5.1875 -1.859375 3.789062 -3.125 2.78125 -4.75 C 1.78125 -6.375 1.28125 -8.265625 1.28125 -10.421875 C 1.28125 -12.566406 1.78125 -14.457031 2.78125 -16.09375 C 3.789062 -17.738281 5.179688 -19.019531 6.953125 -19.9375 C 8.722656 -20.851562 10.78125 -21.3125 13.125 -21.3125 C 14.46875 -21.3125 15.753906 -21.132812 16.984375 -20.78125 C 18.222656 -20.425781 19.332031 -19.945312 20.3125 -19.34375 C 21.289062 -18.75 22.035156 -18.082031 22.546875 -17.34375 C 22.691406 -17.101562 22.691406 -16.847656 22.546875 -16.578125 L 21.453125 -14.921875 C 21.179688 -14.554688 20.972656 -14.582031 20.828125 -15 C 20.460938 -16.070312 19.859375 -17.007812 19.015625 -17.8125 C 18.171875 -18.625 17.191406 -19.253906 16.078125 -19.703125 C 14.960938 -20.160156 13.796875 -20.390625 12.578125 -20.390625 C 12.179688 -20.390625 11.785156 -20.367188 11.390625 -20.328125 C 11.003906 -20.296875 10.617188 -20.21875 10.234375 -20.09375 C 8.398438 -19.601562 6.90625 -18.765625 5.75 -17.578125 C 4.601562 -16.398438 3.859375 -14.984375 3.515625 -13.328125 C 3.171875 -11.679688 3.28125 -9.890625 3.84375 -7.953125 C 4.550781 -5.585938 5.753906 -3.738281 7.453125 -2.40625 C 9.160156 -1.070312 11.085938 -0.40625 13.234375 -0.40625 C 15.265625 -0.40625 16.957031 -0.878906 18.3125 -1.828125 C 19.675781 -2.785156 20.769531 -4.179688 21.59375 -6.015625 C 21.71875 -6.304688 21.890625 -6.34375 22.109375 -6.125 L 23.28125 -5.09375 C 23.476562 -4.894531 23.503906 -4.675781 23.359375 -4.4375 Z M 23.359375 -4.4375 "/></g></g></g><g fill="#dccdb9" fill-opacity="1"><g transform="translate(129.430472, 82.499992)"><g/></g></g><g fill="#dccdb9" fill-opacity="1"><g transform="translate(139.36392, 82.499992)"><g><path d="M 15 -4.90625 C 15 -3.90625 14.710938 -3 14.140625 -2.1875 C 13.566406 -1.382812 12.773438 -0.75 11.765625 -0.28125 C 10.765625 0.175781 9.601562 0.40625 8.28125 0.40625 C 6.15625 0.40625 4.472656 -0.09375 3.234375 -1.09375 C 2.003906 -2.101562 1.390625 -3.390625 1.390625 -4.953125 C 1.390625 -5.972656 1.660156 -7.0625 2.203125 -8.21875 C 2.296875 -8.363281 2.410156 -8.484375 2.546875 -8.578125 C 2.679688 -8.679688 2.847656 -8.71875 3.046875 -8.6875 C 3.359375 -8.644531 3.726562 -8.597656 4.15625 -8.546875 C 4.582031 -8.492188 4.957031 -8.441406 5.28125 -8.390625 C 5.5 -8.367188 5.609375 -8.25 5.609375 -8.03125 C 5.609375 -7.863281 5.523438 -7.71875 5.359375 -7.59375 C 4.617188 -7.050781 4.082031 -6.476562 3.75 -5.875 C 3.425781 -5.28125 3.265625 -4.703125 3.265625 -4.140625 C 3.265625 -3.140625 3.738281 -2.257812 4.6875 -1.5 C 5.644531 -0.738281 6.867188 -0.359375 8.359375 -0.359375 C 9.773438 -0.390625 10.863281 -0.832031 11.625 -1.6875 C 12.382812 -2.539062 12.691406 -3.613281 12.546875 -4.90625 C 12.398438 -6.0625 11.851562 -7.070312 10.90625 -7.9375 C 9.96875 -8.800781 8.910156 -9.613281 7.734375 -10.375 C 6.878906 -10.9375 6.03125 -11.535156 5.1875 -12.171875 C 4.34375 -12.804688 3.632812 -13.507812 3.0625 -14.28125 C 2.488281 -15.050781 2.175781 -15.890625 2.125 -16.796875 C 2.070312 -18.085938 2.585938 -19.171875 3.671875 -20.046875 C 4.765625 -20.929688 6.207031 -21.375 8 -21.375 C 9.800781 -21.375 11.253906 -20.957031 12.359375 -20.125 C 13.460938 -19.300781 13.953125 -18.238281 13.828125 -16.9375 C 13.796875 -16.519531 13.738281 -16.128906 13.65625 -15.765625 C 13.570312 -15.398438 13.410156 -14.972656 13.171875 -14.484375 C 12.992188 -14.191406 12.75 -14.054688 12.4375 -14.078125 C 12.1875 -14.128906 11.867188 -14.175781 11.484375 -14.21875 C 11.109375 -14.269531 10.789062 -14.3125 10.53125 -14.34375 C 10.351562 -14.363281 10.265625 -14.457031 10.265625 -14.625 C 10.265625 -14.800781 10.328125 -14.925781 10.453125 -15 C 10.992188 -15.34375 11.40625 -15.703125 11.6875 -16.078125 C 11.96875 -16.460938 12.117188 -16.921875 12.140625 -17.453125 C 12.191406 -18.378906 11.820312 -19.140625 11.03125 -19.734375 C 10.25 -20.335938 9.210938 -20.617188 7.921875 -20.578125 C 6.722656 -20.546875 5.78125 -20.175781 5.09375 -19.46875 C 4.414062 -18.757812 4.132812 -17.84375 4.25 -16.71875 C 4.320312 -16.082031 4.585938 -15.492188 5.046875 -14.953125 C 5.515625 -14.421875 6.078125 -13.925781 6.734375 -13.46875 C 7.398438 -13.019531 8.066406 -12.578125 8.734375 -12.140625 C 9.734375 -11.503906 10.710938 -10.832031 11.671875 -10.125 C 12.640625 -9.414062 13.441406 -8.640625 14.078125 -7.796875 C 14.710938 -6.953125 15.019531 -5.988281 15 -4.90625 Z M 15 -4.90625 "/></g></g></g><g fill="#dccdb9" fill-opacity="1"><g transform="translate(153.915849, 82.499992)"><g><path d="M 4.4375 -0.21875 C 4.4375 -0.0703125 4.351562 0 4.1875 0 L 1.171875 0 C 1.003906 0 0.921875 -0.0820312 0.921875 -0.25 C 0.921875 -0.40625 0.957031 -0.554688 1.03125 -0.703125 L 1.5 -1.875 C 1.84375 -2.695312 2.1875 -3.625 2.53125 -4.65625 C 2.875 -5.6875 3.128906 -6.640625 3.296875 -7.515625 L 6.34375 -20.96875 C 6.34375 -21.125 6.425781 -21.203125 6.59375 -21.203125 L 10.453125 -21.203125 C 10.671875 -21.203125 10.742188 -21.101562 10.671875 -20.90625 L 10.234375 -19.328125 C 9.960938 -18.492188 9.828125 -17.546875 9.828125 -16.484375 C 9.828125 -15.421875 9.945312 -14.460938 10.1875 -13.609375 L 11.984375 -7.484375 C 12.234375 -6.628906 12.519531 -5.675781 12.84375 -4.625 C 13.175781 -3.570312 13.488281 -2.617188 13.78125 -1.765625 L 14.15625 -0.703125 C 14.207031 -0.503906 14.234375 -0.34375 14.234375 -0.21875 C 14.234375 -0.0703125 14.144531 0 13.96875 0 L 10.015625 0 C 9.835938 0 9.75 -0.0820312 9.75 -0.25 C 9.75 -0.40625 9.773438 -0.554688 9.828125 -0.703125 L 10.1875 -1.765625 C 10.457031 -2.546875 10.609375 -3.425781 10.640625 -4.40625 C 10.679688 -5.382812 10.609375 -6.285156 10.421875 -7.109375 L 3.921875 -7.109375 C 3.773438 -6.285156 3.71875 -5.382812 3.75 -4.40625 C 3.789062 -3.425781 3.910156 -2.53125 4.109375 -1.71875 L 4.359375 -0.703125 C 4.410156 -0.503906 4.4375 -0.34375 4.4375 -0.21875 Z M 6.71875 -19.6875 L 4.03125 -7.703125 L 10.265625 -7.703125 L 8.546875 -13.640625 C 8.296875 -14.492188 8.007812 -15.445312 7.6875 -16.5 C 7.375 -17.550781 7.085938 -18.503906 6.828125 -19.359375 Z M 6.71875 -19.6875 "/></g></g></g><g fill="#dccdb9" fill-opacity="1"><g transform="translate(166.744755, 82.499992)"><g><path d="M 4.4375 -0.21875 C 4.4375 -0.0703125 4.351562 0 4.1875 0 L 1.171875 0 C 1.003906 0 0.921875 -0.0820312 0.921875 -0.25 C 0.921875 -0.40625 0.957031 -0.554688 1.03125 -0.703125 L 1.5 -1.875 C 1.84375 -2.695312 2.1875 -3.625 2.53125 -4.65625 C 2.875 -5.6875 3.128906 -6.640625 3.296875 -7.515625 L 6.34375 -20.96875 C 6.34375 -21.125 6.425781 -21.203125 6.59375 -21.203125 L 10.453125 -21.203125 C 10.671875 -21.203125 10.742188 -21.101562 10.671875 -20.90625 L 10.234375 -19.328125 C 9.960938 -18.492188 9.828125 -17.546875 9.828125 -16.484375 C 9.828125 -15.421875 9.945312 -14.460938 10.1875 -13.609375 L 11.984375 -7.484375 C 12.234375 -6.628906 12.519531 -5.675781 12.84375 -4.625 C 13.175781 -3.570312 13.488281 -2.617188 13.78125 -1.765625 L 14.15625 -0.703125 C 14.207031 -0.503906 14.234375 -0.34375 14.234375 -0.21875 C 14.234375 -0.0703125 14.144531 0 13.96875 0 L 10.015625 0 C 9.835938 0 9.75 -0.0820312 9.75 -0.25 C 9.75 -0.40625 9.773438 -0.554688 9.828125 -0.703125 L 10.1875 -1.765625 C 10.457031 -2.546875 10.609375 -3.425781 10.640625 -4.40625 C 10.679688 -5.382812 10.609375 -6.285156 10.421875 -7.109375 L 3.921875 -7.109375 C 3.773438 -6.285156 3.71875 -5.382812 3.75 -4.40625 C 3.789062 -3.425781 3.910156 -2.53125 4.109375 -1.71875 L 4.359375 -0.703125 C 4.410156 -0.503906 4.4375 -0.34375 4.4375 -0.21875 Z M 6.71875 -19.6875 L 4.03125 -7.703125 L 10.265625 -7.703125 L 8.546875 -13.640625 C 8.296875 -14.492188 8.007812 -15.445312 7.6875 -16.5 C 7.375 -17.550781 7.085938 -18.503906 6.828125 -19.359375 Z M 6.71875 -19.6875 "/></g></g></g><g fill="#dccdb9" fill-opacity="1"><g transform="translate(180.857024, 82.499992)"><g><path d="M 5.9375 -0.21875 C 5.9375 -0.0703125 5.851562 0 5.6875 0 L 1.765625 0 C 1.566406 0 1.46875 -0.0820312 1.46875 -0.25 C 1.46875 -0.40625 1.503906 -0.554688 1.578125 -0.703125 L 1.9375 -1.765625 C 2.207031 -2.566406 2.425781 -3.460938 2.59375 -4.453125 C 2.769531 -5.441406 2.867188 -6.363281 2.890625 -7.21875 L 2.890625 -13.3125 C 2.890625 -14.1875 2.796875 -15.160156 2.609375 -16.234375 C 2.429688 -17.316406 2.195312 -18.273438 1.90625 -19.109375 L 1.546875 -20.171875 C 1.492188 -20.367188 1.46875 -20.523438 1.46875 -20.640625 C 1.46875 -20.785156 1.550781 -20.859375 1.71875 -20.859375 L 6.09375 -20.859375 C 6.164062 -20.859375 6.238281 -20.859375 6.3125 -20.859375 C 6.382812 -20.859375 6.441406 -20.859375 6.484375 -20.859375 C 8.242188 -20.859375 9.789062 -20.546875 11.125 -19.921875 C 12.457031 -19.304688 13.492188 -18.4375 14.234375 -17.3125 C 14.984375 -16.1875 15.359375 -14.878906 15.359375 -13.390625 C 15.359375 -11.554688 14.796875 -10.003906 13.671875 -8.734375 C 12.546875 -7.460938 11.03125 -6.617188 9.125 -6.203125 C 9.425781 -6.171875 9.769531 -6.0625 10.15625 -5.875 C 10.550781 -5.695312 10.976562 -5.375 11.4375 -4.90625 L 15.625 -0.8125 C 15.894531 -0.5625 15.984375 -0.363281 15.890625 -0.21875 C 15.804688 -0.0703125 15.59375 0 15.25 0 L 12.328125 0 C 12.097656 0 11.925781 -0.0976562 11.8125 -0.296875 C 11.664062 -0.609375 11.425781 -1.078125 11.09375 -1.703125 C 10.757812 -2.328125 10.40625 -2.953125 10.03125 -3.578125 C 9.65625 -4.203125 9.316406 -4.644531 9.015625 -4.90625 C 8.628906 -5.28125 8.175781 -5.539062 7.65625 -5.6875 C 7.144531 -5.832031 6.660156 -5.914062 6.203125 -5.9375 C 5.953125 -5.9375 5.691406 -5.9375 5.421875 -5.9375 C 5.160156 -5.9375 4.894531 -5.9375 4.625 -5.9375 C 4.769531 -4.425781 5.0625 -3.046875 5.5 -1.796875 L 5.875 -0.703125 C 5.914062 -0.648438 5.9375 -0.570312 5.9375 -0.46875 C 5.9375 -0.375 5.9375 -0.289062 5.9375 -0.21875 Z M 4.546875 -7.59375 C 4.546875 -7.445312 4.546875 -7.289062 4.546875 -7.125 C 4.546875 -6.96875 4.554688 -6.816406 4.578125 -6.671875 L 5.984375 -6.671875 C 8.078125 -6.703125 9.769531 -7.285156 11.0625 -8.421875 C 12.363281 -9.554688 13.03125 -11.195312 13.0625 -13.34375 C 13.082031 -14.757812 12.804688 -15.988281 12.234375 -17.03125 C 11.660156 -18.070312 10.859375 -18.859375 9.828125 -19.390625 C 8.796875 -19.929688 7.597656 -20.179688 6.234375 -20.140625 C 5.890625 -20.140625 5.59375 -19.945312 5.34375 -19.5625 C 5.101562 -19.1875 4.914062 -18.726562 4.78125 -18.1875 C 4.644531 -17.644531 4.566406 -17.117188 4.546875 -16.609375 Z M 4.546875 -7.59375 "/></g></g></g></svg>